<svg width="59" height="24" viewBox="0 0 59 24" fill="none" xmlns="http://www.w3.org/2000/svg">
<g clip-path="url(#clip0_41_199)">
<path d="M58.8 3.77146V8.70003H53.2041V23.4857H47.3499V8.70003H42.9593L39.1283 14.1429L46.6182 23.5286H39.3435L35.2972 18L30.9927 23.5286H18.4665V11.1429H24.1915V23.0572L31.5953 14.1429L28.5391 10.4143C28.9695 10.2857 29.4861 10.0715 29.9165 9.90003C31.294 9.30003 32.5423 8.40003 33.6184 7.54289L35.2972 9.85717L39.7309 3.77146H58.8ZM7.92035 24C13.6454 23.9572 17.3903 22.2429 17.3903 17.5286C17.3903 9.1286 5.63895 12.7286 5.63895 9.38574C5.63895 8.27146 6.88726 7.80003 8.73821 7.80003C11.0196 7.80003 13.9467 8.57146 16.1851 9.30003V4.54289C14.2911 3.98574 11.6223 3.38574 8.69517 3.38574C2.15227 3.38574 0 6.47146 0 9.77146C0 18.2143 11.5792 14.6143 11.5792 17.8715C11.5792 18.9857 10.3309 19.4572 7.87731 19.4572C5.46676 19.4572 2.88404 18.8572 0.215227 18V22.7572C1.67877 23.4 3.96018 24 7.92035 24Z" fill="white"/>
<path d="M23.0723 4.58583C21.7379 4.75725 19.93 4.75725 18.4665 4.75725V9.55725H21.1783C24.8802 9.55725 33.9198 8.74297 36.5886 0.0429688H30.8635C29.1417 3.34297 26.2577 4.15725 23.0723 4.58583Z" fill="#FF5000"/>
</g>
<defs>
<clipPath id="clip0_41_199">
<rect width="58.8" height="24" fill="white"/>
</clipPath>
</defs>
</svg>
